<svg xmlns="http://www.w3.org/2000/svg" width="900" height="160" viewBox="0 0 900 160">
  <defs>
    <pattern id="grid" width="24" height="24" patternUnits="userSpaceOnUse">
      <path d="M 24 0 L 0 0 0 24" fill="none" stroke="#1e2732" stroke-width="0.4" opacity="0.35"/>
    </pattern>
    
  </defs>
  <rect x="0" y="0" width="900" height="160" rx="12" fill="#0a0e14"/>
  <rect x="1" y="1" width="898" height="158" rx="11" fill="url(#grid)"/>
  <rect x="1" y="1" width="898" height="158" rx="11" fill="none" stroke="#1e2732" stroke-width="1.4"/>
  
  <rect x="0" y="0" width="900" height="34" rx="10" fill="#0f151d"/>
  <rect x="0" y="16" width="900" height="18" fill="#0f151d"/>
  <circle cx="20" cy="17" r="5.5" fill="#ff5f57"/>
  <circle cx="38" cy="17" r="5.5" fill="#febc2e"/>
  <circle cx="56" cy="17" r="5.5" fill="#28c840"/>
  <text x="450.0" y="21" fill="#5c6773" font-family="SFMono-Regular, Consolas, 'Liberation Mono', Menlo, monospace" font-size="12" text-anchor="middle">06 — status</text>
  <line x1="0" y1="34" x2="900" y2="34" stroke="#1e2732" stroke-width="1"/>

<text x="28" y="66" font-family="SFMono-Regular, Consolas, 'Liberation Mono', Menlo, monospace" font-size="13"><tspan fill="#4ade80">rayen</tspan><tspan fill="#5c6773">@</tspan><tspan fill="#5eead4">insat</tspan><tspan fill="#5c6773">:~$ </tspan><tspan fill="#d3dce6">echo $STATUS</tspan></text><rect x="255" y="54" width="8" height="15" fill="#5eead4">
    <animate attributeName="opacity" values="1;1;0;0;1" keyTimes="0;0.5;0.51;1;1" dur="1s" repeatCount="indefinite"/>
  </rect><text x="28" y="102" font-family="SFMono-Regular, Consolas, 'Liberation Mono', Menlo, monospace" font-size="14" fill="#4ade80">open to internships, collaborations &amp; interesting problems</text><line x1="28" y1="122" x2="872" y2="122" stroke="#1e2732" stroke-width="1"/><text x="28" y="144" font-family="SFMono-Regular, Consolas, 'Liberation Mono', Menlo, monospace" font-size="12" fill="#3b4351">exit code 0 · thanks for reading this far</text></svg>