<svg xmlns="http://www.w3.org/2000/svg" width="900" height="400" viewBox="0 0 900 400">
  <defs>
    <pattern id="grid" width="24" height="24" patternUnits="userSpaceOnUse">
      <path d="M 24 0 L 0 0 0 24" fill="none" stroke="#1e2732" stroke-width="0.4" opacity="0.35"/>
    </pattern>
    
  </defs>
  <rect x="0" y="0" width="900" height="400" rx="12" fill="#0a0e14"/>
  <rect x="1" y="1" width="898" height="398" rx="11" fill="url(#grid)"/>
  <rect x="1" y="1" width="898" height="398" rx="11" fill="none" stroke="#1e2732" stroke-width="1.4"/>
  
  <rect x="0" y="0" width="900" height="34" rx="10" fill="#0f151d"/>
  <rect x="0" y="16" width="900" height="18" fill="#0f151d"/>
  <circle cx="20" cy="17" r="5.5" fill="#ff5f57"/>
  <circle cx="38" cy="17" r="5.5" fill="#febc2e"/>
  <circle cx="56" cy="17" r="5.5" fill="#28c840"/>
  <text x="450.0" y="21" fill="#5c6773" font-family="SFMono-Regular, Consolas, 'Liberation Mono', Menlo, monospace" font-size="12" text-anchor="middle">02 — stack</text>
  <line x1="0" y1="34" x2="900" y2="34" stroke="#1e2732" stroke-width="1"/>

<text x="28" y="66" font-family="SFMono-Regular, Consolas, 'Liberation Mono', Menlo, monospace" font-size="13"><tspan fill="#4ade80">rayen</tspan><tspan fill="#5c6773">@</tspan><tspan fill="#5eead4">insat</tspan><tspan fill="#5c6773">:~$ </tspan><tspan fill="#d3dce6">ls -R ./skills</tspan></text><rect x="255" y="54" width="8" height="15" fill="#5eead4">
    <animate attributeName="opacity" values="1;1;0;0;1" keyTimes="0;0.5;0.51;1;1" dur="1s" repeatCount="indefinite"/>
  </rect><text x="28" y="104" font-family="SFMono-Regular, Consolas, 'Liberation Mono', Menlo, monospace" font-size="14" font-weight="700" fill="#5eead4">languages/</text><rect x="170" y="89" width="35" height="21" rx="5" fill="#0d1218" stroke="#1e2732" stroke-width="1"/>
        <text x="183" y="104" font-family="SFMono-Regular, Consolas, 'Liberation Mono', Menlo, monospace" font-size="12.5" fill="#d3dce6">C</text><rect x="215" y="89" width="53" height="21" rx="5" fill="#0d1218" stroke="#1e2732" stroke-width="1"/>
        <text x="228" y="104" font-family="SFMono-Regular, Consolas, 'Liberation Mono', Menlo, monospace" font-size="12.5" fill="#d3dce6">C++</text><rect x="278" y="89" width="62" height="21" rx="5" fill="#0d1218" stroke="#1e2732" stroke-width="1"/>
        <text x="291" y="104" font-family="SFMono-Regular, Consolas, 'Liberation Mono', Menlo, monospace" font-size="12.5" fill="#d3dce6">Java</text><rect x="350" y="89" width="80" height="21" rx="5" fill="#0d1218" stroke="#1e2732" stroke-width="1"/>
        <text x="363" y="104" font-family="SFMono-Regular, Consolas, 'Liberation Mono', Menlo, monospace" font-size="12.5" fill="#d3dce6">Python</text><rect x="440" y="89" width="116" height="21" rx="5" fill="#0d1218" stroke="#1e2732" stroke-width="1"/>
        <text x="453" y="104" font-family="SFMono-Regular, Consolas, 'Liberation Mono', Menlo, monospace" font-size="12.5" fill="#d3dce6">JavaScript</text><rect x="566" y="89" width="53" height="21" rx="5" fill="#0d1218" stroke="#1e2732" stroke-width="1"/>
        <text x="579" y="104" font-family="SFMono-Regular, Consolas, 'Liberation Mono', Menlo, monospace" font-size="12.5" fill="#d3dce6">PHP</text><rect x="629" y="89" width="107" height="21" rx="5" fill="#0d1218" stroke="#1e2732" stroke-width="1"/>
        <text x="642" y="104" font-family="SFMono-Regular, Consolas, 'Liberation Mono', Menlo, monospace" font-size="12.5" fill="#d3dce6">SQL·PLSQL</text><text x="28" y="150" font-family="SFMono-Regular, Consolas, 'Liberation Mono', Menlo, monospace" font-size="14" font-weight="700" fill="#f472b6">vision_ai/</text><rect x="170" y="135" width="80" height="21" rx="5" fill="#0d1218" stroke="#1e2732" stroke-width="1"/>
        <text x="183" y="150" font-family="SFMono-Regular, Consolas, 'Liberation Mono', Menlo, monospace" font-size="12.5" fill="#d3dce6">OpenCV</text><rect x="260" y="135" width="107" height="21" rx="5" fill="#0d1218" stroke="#1e2732" stroke-width="1"/>
        <text x="273" y="150" font-family="SFMono-Regular, Consolas, 'Liberation Mono', Menlo, monospace" font-size="12.5" fill="#d3dce6">MediaPipe</text><rect x="377" y="135" width="62" height="21" rx="5" fill="#0d1218" stroke="#1e2732" stroke-width="1"/>
        <text x="390" y="150" font-family="SFMono-Regular, Consolas, 'Liberation Mono', Menlo, monospace" font-size="12.5" fill="#d3dce6">YOLO</text><rect x="449" y="135" width="53" height="21" rx="5" fill="#0d1218" stroke="#1e2732" stroke-width="1"/>
        <text x="462" y="150" font-family="SFMono-Regular, Consolas, 'Liberation Mono', Menlo, monospace" font-size="12.5" fill="#d3dce6">NLP</text><rect x="512" y="135" width="188" height="21" rx="5" fill="#0d1218" stroke="#1e2732" stroke-width="1"/>
        <text x="525" y="150" font-family="SFMono-Regular, Consolas, 'Liberation Mono', Menlo, monospace" font-size="12.5" fill="#d3dce6">Sentiment-Analysis</text><rect x="710" y="135" width="53" height="21" rx="5" fill="#0d1218" stroke="#1e2732" stroke-width="1"/>
        <text x="723" y="150" font-family="SFMono-Regular, Consolas, 'Liberation Mono', Menlo, monospace" font-size="12.5" fill="#d3dce6">RAG</text><text x="28" y="196" font-family="SFMono-Regular, Consolas, 'Liberation Mono', Menlo, monospace" font-size="14" font-weight="700" fill="#f2c14e">frameworks/</text><rect x="170" y="181" width="71" height="21" rx="5" fill="#0d1218" stroke="#1e2732" stroke-width="1"/>
        <text x="183" y="196" font-family="SFMono-Regular, Consolas, 'Liberation Mono', Menlo, monospace" font-size="12.5" fill="#d3dce6">React</text><rect x="251" y="181" width="125" height="21" rx="5" fill="#0d1218" stroke="#1e2732" stroke-width="1"/>
        <text x="264" y="196" font-family="SFMono-Regular, Consolas, 'Liberation Mono', Menlo, monospace" font-size="12.5" fill="#d3dce6">Spring-Boot</text><rect x="386" y="181" width="80" height="21" rx="5" fill="#0d1218" stroke="#1e2732" stroke-width="1"/>
        <text x="399" y="196" font-family="SFMono-Regular, Consolas, 'Liberation Mono', Menlo, monospace" font-size="12.5" fill="#d3dce6">JavaFX</text><rect x="476" y="181" width="107" height="21" rx="5" fill="#0d1218" stroke="#1e2732" stroke-width="1"/>
        <text x="489" y="196" font-family="SFMono-Regular, Consolas, 'Liberation Mono', Menlo, monospace" font-size="12.5" fill="#d3dce6">REST-APIs</text><rect x="593" y="181" width="71" height="21" rx="5" fill="#0d1218" stroke="#1e2732" stroke-width="1"/>
        <text x="606" y="196" font-family="SFMono-Regular, Consolas, 'Liberation Mono', Menlo, monospace" font-size="12.5" fill="#d3dce6">MySQL</text><rect x="674" y="181" width="116" height="21" rx="5" fill="#0d1218" stroke="#1e2732" stroke-width="1"/>
        <text x="687" y="196" font-family="SFMono-Regular, Consolas, 'Liberation Mono', Menlo, monospace" font-size="12.5" fill="#d3dce6">PostgreSQL</text><text x="28" y="242" font-family="SFMono-Regular, Consolas, 'Liberation Mono', Menlo, monospace" font-size="14" font-weight="700" fill="#4ade80">security/</text><rect x="170" y="227" width="71" height="21" rx="5" fill="#0d1218" stroke="#1e2732" stroke-width="1"/>
        <text x="183" y="242" font-family="SFMono-Regular, Consolas, 'Liberation Mono', Menlo, monospace" font-size="12.5" fill="#d3dce6">OSINT</text><rect x="251" y="227" width="107" height="21" rx="5" fill="#0d1218" stroke="#1e2732" stroke-width="1"/>
        <text x="264" y="242" font-family="SFMono-Regular, Consolas, 'Liberation Mono', Menlo, monospace" font-size="12.5" fill="#d3dce6">Wireshark</text><rect x="368" y="227" width="62" height="21" rx="5" fill="#0d1218" stroke="#1e2732" stroke-width="1"/>
        <text x="381" y="242" font-family="SFMono-Regular, Consolas, 'Liberation Mono', Menlo, monospace" font-size="12.5" fill="#d3dce6">CTFs</text><text x="28" y="288" font-family="SFMono-Regular, Consolas, 'Liberation Mono', Menlo, monospace" font-size="14" font-weight="700" fill="#a78bfa">tooling/</text><rect x="170" y="273" width="53" height="21" rx="5" fill="#0d1218" stroke="#1e2732" stroke-width="1"/>
        <text x="183" y="288" font-family="SFMono-Regular, Consolas, 'Liberation Mono', Menlo, monospace" font-size="12.5" fill="#d3dce6">Git</text><rect x="233" y="273" width="71" height="21" rx="5" fill="#0d1218" stroke="#1e2732" stroke-width="1"/>
        <text x="246" y="288" font-family="SFMono-Regular, Consolas, 'Liberation Mono', Menlo, monospace" font-size="12.5" fill="#d3dce6">Linux</text><text x="28" y="334" font-family="SFMono-Regular, Consolas, 'Liberation Mono', Menlo, monospace" font-size="14" font-weight="700" fill="#60a5fa">design/</text><rect x="170" y="319" width="71" height="21" rx="5" fill="#0d1218" stroke="#1e2732" stroke-width="1"/>
        <text x="183" y="334" font-family="SFMono-Regular, Consolas, 'Liberation Mono', Menlo, monospace" font-size="12.5" fill="#d3dce6">Figma</text><rect x="251" y="319" width="98" height="21" rx="5" fill="#0d1218" stroke="#1e2732" stroke-width="1"/>
        <text x="264" y="334" font-family="SFMono-Regular, Consolas, 'Liberation Mono', Menlo, monospace" font-size="12.5" fill="#d3dce6">Adobe Creative Suite</text><rect x="359" y="319" width="89" height="21" rx="5" fill="#0d1218" stroke="#1e2732" stroke-width="1"/>
        <text x="372" y="334" font-family="SFMono-Regular, Consolas, 'Liberation Mono', Menlo, monospace" font-size="12.5" fill="#d3dce6">Blender</text></svg>
